<svg id="_1_apa" data-name="1 apa" xmlns="http://www.w3.org/2000/svg" xmlns:xlink="http://www.w3.org/1999/xlink" viewBox="0 0 397.96 403.14"><defs><style>.cls-1{fill:url(#linear-gradient);}.cls-2{fill:url(#linear-gradient-2);}.cls-3{fill:url(#linear-gradient-3);}.cls-4{fill:#231f20;}.cls-5{opacity:0.2;}</style><linearGradient id="linear-gradient" x1="254.2" y1="179.85" x2="333.88" y2="372.2" gradientUnits="userSpaceOnUse"><stop offset="0" stop-color="#a6a8ab"/><stop offset="0.1" stop-color="#b0b2b5"/><stop offset="0.48" stop-color="#d3d5d6"/><stop offset="0.8" stop-color="#e9eaeb"/><stop offset="1" stop-color="#f1f2f2"/></linearGradient><linearGradient id="linear-gradient-2" x1="-14.55" y1="43.54" x2="142.09" y2="342.37" gradientUnits="userSpaceOnUse"><stop offset="0" stop-color="#a6a8ab"/><stop offset="0.15" stop-color="#c0c2c4"/><stop offset="0.31" stop-color="#d6d7d8"/><stop offset="0.49" stop-color="#e5e6e7"/><stop offset="0.7" stop-color="#eeefef"/><stop offset="1" stop-color="#f1f2f2"/></linearGradient><linearGradient id="linear-gradient-3" x1="183.36" y1="43.96" x2="262.6" y2="433.95" gradientUnits="userSpaceOnUse"><stop offset="0.04" stop-color="#771727"/><stop offset="0.04" stop-color="#781627"/><stop offset="0.17" stop-color="#8c0d2c"/><stop offset="0.31" stop-color="#9a072f"/><stop offset="0.49" stop-color="#a30330"/><stop offset="0.79" stop-color="#a50231"/></linearGradient></defs><title>ac 1 apa</title><polygon class="cls-1" points="213.21 227.99 388.53 181.21 388.66 316.76 212.94 403.14 213.21 227.99"/><polygon class="cls-2" points="212.97 403.14 11.91 363.39 3.77 54.76 229.24 239.25 213.28 244.98 212.97 403.14"/><polygon class="cls-3" points="0 53.91 199.98 24.84 397.96 187.72 229.9 239.07 0 53.91"/><rect class="cls-4" x="278.71" y="318.03" width="1.41" height="100.17" transform="translate(-56.06 -44.55) rotate(-0.79)"/><path class="cls-4" d="M278.65,312.09a30,30,0,0,1-4.57,8.49l4.66-1.76,4.71,1.63A29.64,29.64,0,0,1,278.65,312.09Z" transform="translate(-51.02 -48.43)"/><path class="cls-4" d="M280.19,424.14a30.13,30.13,0,0,0-4.8-8.36l4.71,1.63,4.66-1.76A29.79,29.79,0,0,0,280.19,424.14Z" transform="translate(-51.02 -48.43)"/><path class="cls-4" d="M295.39,364.62l-1.82,5.53h-2.35l6-17.59h2.74l6,17.59h-2.43l-1.88-5.53Zm5.77-1.77-1.72-5.07c-.39-1.14-.65-2.19-.91-3.21h-.06c-.26,1.05-.54,2.12-.88,3.19l-1.73,5.09Z" transform="translate(-51.02 -48.43)"/><rect class="cls-4" x="59.37" y="74.65" width="182.54" height="1.41" transform="matrix(0.99, -0.14, 0.14, 0.99, -60.31, -25.93)"/><path class="cls-4" d="M54.43,89.37a29.9,29.9,0,0,1,9,3.43l-2.36-4.4,1-4.88A29.92,29.92,0,0,1,54.43,89.37Z" transform="translate(-51.02 -48.43)"/><path class="cls-4" d="M246.84,61.34a29.73,29.73,0,0,0-7.66,5.86l1-4.89-2.36-4.39A30,30,0,0,0,246.84,61.34Z" transform="translate(-51.02 -48.43)"/><path class="cls-4" d="M144.29,48.79a22.83,22.83,0,0,1,4.15-.36c2.27,0,3.73.39,4.83,1.28a3.69,3.69,0,0,1,1.46,3.1,4.18,4.18,0,0,1-3,3.87v0a4.54,4.54,0,0,1,3.63,4.41,4.73,4.73,0,0,1-1.49,3.52c-1.22,1.12-3.21,1.65-6.08,1.65a27.34,27.34,0,0,1-3.52-.21ZM146.56,56h2.06c2.4,0,3.81-1.26,3.81-3,0-2.06-1.56-2.87-3.86-2.87a10.65,10.65,0,0,0-2,.15Zm0,8.43a12.05,12.05,0,0,0,1.91.1c2.34,0,4.51-.86,4.51-3.42,0-2.4-2.06-3.39-4.54-3.39h-1.88Z" transform="translate(-51.02 -48.43)"/><rect class="cls-4" x="161.03" y="110.41" width="1.41" height="202.36" transform="translate(-155.56 157.65) rotate(-51.42)"/><path class="cls-4" d="M245.48,278.4a29.77,29.77,0,0,1-3.66-8.92l-1.6,4.72L236,276.81A30,30,0,0,1,245.48,278.4Z" transform="translate(-51.02 -48.43)"/><path class="cls-4" d="M78,144.79a29.79,29.79,0,0,0,9.52,1.58L83.25,149l-1.6,4.72A29.38,29.38,0,0,0,78,144.79Z" transform="translate(-51.02 -48.43)"/><path class="cls-4" d="M157.94,238.64a11.26,11.26,0,0,1-4.65.84c-5,0-8.69-3.13-8.69-8.9,0-5.51,3.73-9.24,9.19-9.24a9.46,9.46,0,0,1,4.17.78l-.55,1.85a8.35,8.35,0,0,0-3.55-.73c-4.12,0-6.86,2.64-6.86,7.26,0,4.31,2.48,7.07,6.76,7.07a9.21,9.21,0,0,0,3.71-.73Z" transform="translate(-51.02 -48.43)"/><g class="cls-5"><rect class="cls-4" x="356.03" y="222.01" width="1.76" height="1.76" transform="translate(-102.44 72.82) rotate(-18.01)"/><rect class="cls-4" x="358.21" y="221.3" width="1.76" height="1.76" transform="translate(-102.12 73.46) rotate(-18.01)"/><rect class="cls-4" x="356.74" y="224.18" width="1.76" height="1.76" transform="translate(-103.08 73.14) rotate(-18.01)"/><rect class="cls-4" x="358.91" y="223.48" width="1.76" height="1.76" transform="translate(-102.75 73.78) rotate(-18.01)"/><path class="cls-4" d="M361.34,225.15l-4.51,1.46-1.47-4.51,4.52-1.47Zm-4.41,1.25,4.2-1.36-1.36-4.2-4.2,1.36Z" transform="translate(-51.02 -48.43)"/><polygon class="cls-4" points="303.43 164.62 303.43 164.62 303.42 164.62 295.69 177.85 288.64 174.76 287.27 170.55 284.46 171.46 285.02 173.17 272.54 167.7 272.54 167.7 272.54 167.7 255.84 196.27 260.5 194.75 273.88 171.84 294.04 180.68 297.04 182 298.18 182.5 302.84 180.99 298.69 179.17 304.77 168.76 319.96 175.42 324.62 173.91 303.43 164.62"/><path class="cls-4" d="M318.82,253.6l1,3-8.2,2.66-4.07-12.53,8-2.61,1,3-4.59,1.5.6,1.84,4.13-1.34.92,2.83-4.13,1.34.61,1.88Z" transform="translate(-51.02 -48.43)"/><path class="cls-4" d="M331.05,252.93l-4.32-4.14-1.1,5.9-5.12,1.67,2.16-10.11-7.2-6.32,5.1-1.66,4,3.83,1-5.43,5-1.63-2,9.41,7.66,6.82Z" transform="translate(-51.02 -48.43)"/><path class="cls-4" d="M344.72,239.64a4.68,4.68,0,0,1-3.18,6.05l-1.88.61,1.13,3.46-3.47,1.13-4.07-12.53,5.35-1.74A4.68,4.68,0,0,1,344.72,239.64Zm-3.55,1.16a1.53,1.53,0,0,0-2-1l-1.46.48,1,3,1.47-.48A1.51,1.51,0,0,0,341.17,240.8Z" transform="translate(-51.02 -48.43)"/><path class="cls-4" d="M356.12,241.47l1,3-8.19,2.66-4.07-12.53,8-2.61,1,3-4.6,1.49.6,1.85L354,237l.92,2.83-4.13,1.34.61,1.87Z" transform="translate(-51.02 -48.43)"/><path class="cls-4" d="M362.55,238.45l-1.26.41,1.25,3.83-3.46,1.13L355,231.29l5.45-1.77a4.62,4.62,0,0,1,6.12,2.92,4.21,4.21,0,0,1-.85,4.18l4,3.75-3.87,1.25Zm-2.2-2.5,1.58-.51a1.44,1.44,0,1,0-.88-2.72l-1.59.51Z" transform="translate(-51.02 -48.43)"/><path class="cls-4" d="M377.31,227.48l-3.42,1.11L377,238l-3.47,1.13-3.07-9.42L367,230.83l-1-3.11,10.31-3.35Z" transform="translate(-51.02 -48.43)"/><path class="cls-4" d="M316.39,266.72a2.89,2.89,0,0,1-1,.15,2.05,2.05,0,0,1-.89-.22,2,2,0,0,1-.71-.59,3.12,3.12,0,0,1-.51-1,3,3,0,0,1-.14-1,2.43,2.43,0,0,1,.21-.93,2.38,2.38,0,0,1,.57-.78,2.49,2.49,0,0,1,.93-.53,2.18,2.18,0,0,1,.89-.11,1.82,1.82,0,0,1,.74.21,1.88,1.88,0,0,1,.56.45,1.8,1.8,0,0,1,.34.62l0,.12a1,1,0,0,0,0,.14l0,.14a.58.58,0,0,1,0,.1l-2.95,1a2.36,2.36,0,0,0,.81,1.24,1.45,1.45,0,0,0,1.29.1,2.55,2.55,0,0,0,.44-.2,2.27,2.27,0,0,0,.34-.24,2.89,2.89,0,0,0,.25-.24l.18-.21.11,0,.12.36a2.94,2.94,0,0,1-.28.4,3.62,3.62,0,0,1-.38.41,3,3,0,0,1-.49.37A2.58,2.58,0,0,1,316.39,266.72Zm-.26-3.17c-.07-.2-.14-.39-.21-.55a2,2,0,0,0-.26-.42.87.87,0,0,0-.33-.22.58.58,0,0,0-.39,0,.73.73,0,0,0-.36.22.87.87,0,0,0-.19.37,2.06,2.06,0,0,0,0,.51,2.92,2.92,0,0,0,.11.61Z" transform="translate(-51.02 -48.43)"/><path class="cls-4" d="M318.76,265.53l.32-.28a.85.85,0,0,0,.19-.19.58.58,0,0,0,.11-.18l.74-1.9-1.79-1.36a.51.51,0,0,0-.18-.09.68.68,0,0,0-.26,0l-.4,0-.09-.28,2.59-.84.09.28-.52.36.84.74.4.32.52-1.6-.63,0-.09-.28,1.82-.59.09.28-.32.27a1.17,1.17,0,0,0-.19.2l-.11.17-.72,1.81,1.88,1.42a.56.56,0,0,0,.19.09.87.87,0,0,0,.25,0l.38,0,.09.28-2.57.83-.09-.28.52-.37-.93-.79-.39-.32-.54,1.7.62,0,.09.28-1.82.59Z" transform="translate(-51.02 -48.43)"/><path class="cls-4" d="M325.06,266l.43-.3a.38.38,0,0,0,.13-.16.28.28,0,0,0,0-.18L324,260.17a.38.38,0,0,0-.13-.19.6.6,0,0,0-.28-.07h-.44l-.07-.23,1.8-1,.25.76a2.24,2.24,0,0,1,.28-.6,2,2,0,0,1,.33-.37,2.21,2.21,0,0,1,.33-.21l.28-.1a1.64,1.64,0,0,1,1.52.21,2.17,2.17,0,0,1,.58.59,3.11,3.11,0,0,1,.41.86,3.27,3.27,0,0,1,.18,1.05,2.48,2.48,0,0,1-.15,1,2,2,0,0,1-.49.77,2.1,2.1,0,0,1-.83.5,2,2,0,0,1-.38.08,1.19,1.19,0,0,1-.33,0,1.37,1.37,0,0,1-.29-.07l-.25-.1.06.18.56,1.72a.24.24,0,0,0,.11.16.26.26,0,0,0,.19,0l.66,0,.09.28-2.79.9Zm2-3.35a.94.94,0,0,0,.46-.29,1.17,1.17,0,0,0,.22-.48,1.9,1.9,0,0,0,0-.59,2.8,2.8,0,0,0-.15-.67,4.2,4.2,0,0,0-.29-.71,2.26,2.26,0,0,0-.38-.5,1.15,1.15,0,0,0-.45-.26,1,1,0,0,0-.55,0,.89.89,0,0,0-.19.07.71.71,0,0,0-.21.11.77.77,0,0,0-.18.18.68.68,0,0,0-.11.26l.94,2.88a.48.48,0,0,0,.19.05h.24l.23,0Z" transform="translate(-51.02 -48.43)"/><path class="cls-4" d="M332.8,261.39a3,3,0,0,1-1,.15,2,2,0,0,1-.88-.22,2.23,2.23,0,0,1-.72-.59,3.12,3.12,0,0,1-.51-1,3,3,0,0,1-.14-1,2.64,2.64,0,0,1,.22-.93,2.34,2.34,0,0,1,.56-.78,2.49,2.49,0,0,1,.93-.53,2.18,2.18,0,0,1,.89-.11,1.77,1.77,0,0,1,.74.21,1.64,1.64,0,0,1,.56.45,1.8,1.8,0,0,1,.34.62s0,.07,0,.11,0,.1,0,.15l0,.14a.58.58,0,0,1,0,.1l-2.95,1a2.36,2.36,0,0,0,.81,1.24,1.46,1.46,0,0,0,1.29.1,2.24,2.24,0,0,0,.44-.2,3.33,3.33,0,0,0,.34-.24,2.89,2.89,0,0,0,.25-.24l.18-.21.11,0,.12.36a2.94,2.94,0,0,1-.28.4,3.62,3.62,0,0,1-.38.41,3.41,3.41,0,0,1-.48.37A2.8,2.8,0,0,1,332.8,261.39Zm-.27-3.18a3.38,3.38,0,0,0-.21-.54,1.68,1.68,0,0,0-.26-.42.8.8,0,0,0-.32-.22.61.61,0,0,0-.4,0,.8.8,0,0,0-.35.23.77.77,0,0,0-.19.37,1.59,1.59,0,0,0,0,.5,4,4,0,0,0,.12.62Z" transform="translate(-51.02 -48.43)"/><path class="cls-4" d="M335.45,260.1l.43-.3a.44.44,0,0,0,.12-.15.31.31,0,0,0,0-.19l-.94-2.89a.43.43,0,0,0-.05-.12l-.08-.08a.43.43,0,0,0-.12-.05l-.16,0h-.48l-.08-.23,1.83-1,.34,1,.12-.44a2.2,2.2,0,0,1,.17-.45,1.48,1.48,0,0,1,.29-.37,1,1,0,0,1,.44-.26l.24-.07.2,0h.35l.46,1.41-.38.13-.32-.29a.16.16,0,0,0-.1,0,.57.57,0,0,0-.15,0h-.16l-.15,0-.26.1a1.28,1.28,0,0,0-.23.14,1,1,0,0,0-.19.21,1.79,1.79,0,0,0-.16.31l.85,2.59a.27.27,0,0,0,.11.16.31.31,0,0,0,.19,0l.61,0,.09.28-2.74.9Z" transform="translate(-51.02 -48.43)"/><path class="cls-4" d="M342.31,258.28a2.07,2.07,0,0,1-.58.12,1.35,1.35,0,0,1-.5,0,1,1,0,0,1-.4-.2,1,1,0,0,1-.23-.38l-1-3.19-.74.24-.1-.3a1.84,1.84,0,0,0,.31-.2,1.08,1.08,0,0,0,.21-.22.63.63,0,0,0,.1-.28,1,1,0,0,0,0-.37l-.16-.59,1.08-.55.44,1.35,1.61-.53,0,.56-1.47.48,1,3a.37.37,0,0,0,.18.21.73.73,0,0,0,.29.11,1.13,1.13,0,0,0,.32,0,1,1,0,0,0,.27-.05.47.47,0,0,0,.15-.06l.15-.07.13-.07.1-.07.11,0,.11.32-.18.18-.28.25a4.2,4.2,0,0,1-.38.24A2,2,0,0,1,342.31,258.28Z" transform="translate(-51.02 -48.43)"/><path class="cls-4" d="M346.17,257a2.47,2.47,0,0,1-.58.11,1.36,1.36,0,0,1-.5,0,.87.87,0,0,1-.39-.21.85.85,0,0,1-.24-.37l-1-3.19-.74.24-.1-.3.31-.2a.9.9,0,0,0,.21-.23.52.52,0,0,0,.1-.27.81.81,0,0,0,0-.37l-.16-.6,1.08-.55.44,1.35,1.62-.53v.57l-1.46.47,1,3a.34.34,0,0,0,.17.22.91.91,0,0,0,.29.1,1.15,1.15,0,0,0,.32,0l.28-.05.15-.06L347,256l.13-.08.11-.07.11,0,.1.32-.18.18a2.32,2.32,0,0,1-.28.24,3.41,3.41,0,0,1-.37.25A2.77,2.77,0,0,1,346.17,257Z" transform="translate(-51.02 -48.43)"/><path class="cls-4" d="M349.36,256a1.29,1.29,0,0,1-.54.06,1.34,1.34,0,0,1-.49-.15,1.44,1.44,0,0,1-.38-.32,1.31,1.31,0,0,1-.24-.45,1.35,1.35,0,0,1-.07-.55,1.43,1.43,0,0,1,.14-.5,1.66,1.66,0,0,1,.29-.42,2.64,2.64,0,0,1,.39-.36,4.12,4.12,0,0,1,.45-.27,2.78,2.78,0,0,1,.44-.19l.12,0,.17,0,.17,0,.12,0-.22-.69c0-.15-.1-.28-.14-.37a.58.58,0,0,0-.17-.2.36.36,0,0,0-.21-.05.88.88,0,0,0-.29.06,1.07,1.07,0,0,0-.37.21,2.79,2.79,0,0,0-.35.34c-.11.12-.21.25-.31.37l-.24.33-.15.05-.5-.87.31-.26a3.73,3.73,0,0,1,.38-.28c.14-.08.29-.17.46-.25a4,4,0,0,1,.52-.21,3.1,3.1,0,0,1,.7-.14,1.77,1.77,0,0,1,.69,0,1.35,1.35,0,0,1,.6.32,1.4,1.4,0,0,1,.4.66l.74,2.37a.34.34,0,0,0,.06.12.41.41,0,0,0,.11.07l.14,0a.42.42,0,0,0,.18,0l.16-.07.21-.11.09,0,.11.33a1.15,1.15,0,0,1-.16.18,2.61,2.61,0,0,1-.24.22l-.31.22a1.21,1.21,0,0,1-.33.15,1.55,1.55,0,0,1-.39.09,1,1,0,0,1-.35,0,.55.55,0,0,1-.28-.17.9.9,0,0,1-.2-.35,2,2,0,0,1-.23.54,1.42,1.42,0,0,1-.32.36,1.51,1.51,0,0,1-.35.23Zm.49-1,.2-.08a.59.59,0,0,0,.18-.13.65.65,0,0,0,.15-.18.87.87,0,0,0,.1-.24l-.43-1.35a3.05,3.05,0,0,0-.57.24,1.39,1.39,0,0,0-.39.32,1,1,0,0,0-.18.39,1,1,0,0,0,0,.47,1.21,1.21,0,0,0,.18.36.76.76,0,0,0,.23.18.57.57,0,0,0,.25.06A.61.61,0,0,0,349.85,255Z" transform="translate(-51.02 -48.43)"/><path class="cls-4" d="M355.87,253.92l-.46.13-.51.1a4.8,4.8,0,0,1-.55,0,3.18,3.18,0,0,1-.61,0l-1.87-5.75a.33.33,0,0,0-.13-.19.5.5,0,0,0-.28-.07H351l-.07-.23,1.87-1.06.94,2.89.11.35a1.94,1.94,0,0,1,.26-.56,1.71,1.71,0,0,1,.32-.37,1.26,1.26,0,0,1,.33-.22l.28-.12a1.87,1.87,0,0,1,.8-.08,1.74,1.74,0,0,1,.72.29,2.38,2.38,0,0,1,.58.6,3.52,3.52,0,0,1,.42.87,3.11,3.11,0,0,1,.16,1.08,2.56,2.56,0,0,1-.23,1,2.28,2.28,0,0,1-.61.81A2.79,2.79,0,0,1,355.87,253.92Zm-.13-.5a1,1,0,0,0,.48-.31,1.16,1.16,0,0,0,.22-.52,1.93,1.93,0,0,0,0-.64,2.85,2.85,0,0,0-.15-.69,4.6,4.6,0,0,0-.3-.73,2.12,2.12,0,0,0-.38-.51,1,1,0,0,0-1-.22l-.2.07-.2.11a.77.77,0,0,0-.18.18.68.68,0,0,0-.11.26l.94,2.88a.54.54,0,0,0,.17.08.86.86,0,0,0,.23.06l.24,0A.72.72,0,0,0,355.74,253.42Z" transform="translate(-51.02 -48.43)"/><path class="cls-4" d="M359,252.46l.42-.3a.38.38,0,0,0,.13-.16.28.28,0,0,0,0-.18l-1.74-5.35a.35.35,0,0,0-.41-.25h-.48l-.07-.22,1.86-1.07,2.11,6.48a.21.21,0,0,0,.12.15.35.35,0,0,0,.18,0l.46,0,.09.28-2.58.84Z" transform="translate(-51.02 -48.43)"/><path class="cls-4" d="M363.64,251.36a1.31,1.31,0,0,1-.55.06,1.34,1.34,0,0,1-.48-.15,1.44,1.44,0,0,1-.38-.32,1.4,1.4,0,0,1-.24-.45,1.2,1.2,0,0,1-.07-.55,1.42,1.42,0,0,1,.13-.5,2.38,2.38,0,0,1,.3-.43,2.57,2.57,0,0,1,.39-.35,2.89,2.89,0,0,1,.44-.27,3.25,3.25,0,0,1,.44-.19l.13,0,.17,0,.16,0,.13,0-.22-.69a2.34,2.34,0,0,0-.15-.37.56.56,0,0,0-.16-.2.34.34,0,0,0-.22-.05.83.83,0,0,0-.28.06,1.07,1.07,0,0,0-.37.21,2.24,2.24,0,0,0-.35.34c-.11.12-.21.24-.31.37l-.24.33-.15,0-.5-.86.31-.27a4.17,4.17,0,0,1,.38-.27,4,4,0,0,1,.46-.25,3.52,3.52,0,0,1,.52-.21,3.1,3.1,0,0,1,.7-.14,1.77,1.77,0,0,1,.69.05,1.35,1.35,0,0,1,.6.32,1.43,1.43,0,0,1,.4.66l.74,2.37a.27.27,0,0,0,.06.12l.1.07.15,0a.45.45,0,0,0,.18,0l.16-.07.2-.11.1,0,.11.33L367,250a1.86,1.86,0,0,1-.25.22,2.32,2.32,0,0,1-.3.22,1.21,1.21,0,0,1-.33.15,1.53,1.53,0,0,1-.4.09.94.94,0,0,1-.34,0,.62.62,0,0,1-.29-.17.89.89,0,0,1-.19-.35,2,2,0,0,1-.23.54,1.64,1.64,0,0,1-.32.36,1.75,1.75,0,0,1-.35.23Zm-.78-5.64a1.6,1.6,0,0,1-.53.09,1.32,1.32,0,0,1-.54-.12,1.74,1.74,0,0,1-.51-.39,2.82,2.82,0,0,1-.45-.7l.38-.22a3.86,3.86,0,0,0,.3.39,1.37,1.37,0,0,0,.3.21.83.83,0,0,0,.35.05,2.23,2.23,0,0,0,.45-.09,2.16,2.16,0,0,0,.4-.18.75.75,0,0,0,.25-.25.73.73,0,0,0,.13-.35,3.43,3.43,0,0,0,0-.5l.43,0a2.81,2.81,0,0,1,0,.85,1.75,1.75,0,0,1-.18.61,1.29,1.29,0,0,1-.36.41A1.86,1.86,0,0,1,362.86,245.72Zm1.27,4.68.2-.08a1,1,0,0,0,.18-.13.65.65,0,0,0,.15-.18,1.33,1.33,0,0,0,.1-.24l-.43-1.36a3,3,0,0,0-.57.25,1.39,1.39,0,0,0-.39.32.88.88,0,0,0-.14.86,1,1,0,0,0,.18.35.67.67,0,0,0,.23.19.54.54,0,0,0,.25.06A.64.64,0,0,0,364.13,250.4Z" transform="translate(-51.02 -48.43)"/><path class="cls-4" d="M368.22,249.76l-.42-1.29,1.29-.42.42,1.29Z" transform="translate(-51.02 -48.43)"/><path class="cls-4" d="M370.75,248.63l.43-.31a.29.29,0,0,0,.12-.15.25.25,0,0,0,0-.19l-.94-2.89a.37.37,0,0,0-.05-.11.34.34,0,0,0-.08-.09l-.12,0-.16,0h-.49l-.07-.23,1.83-1,.34,1a4.32,4.32,0,0,1,.12-.45,2.11,2.11,0,0,1,.17-.44,1.49,1.49,0,0,1,.28-.38,1.24,1.24,0,0,1,.45-.26l.24-.06.2,0h.35l.46,1.42-.38.12-.32-.29a.23.23,0,0,0-.1-.05l-.15,0h-.16a.33.33,0,0,0-.15,0l-.27.1a1.07,1.07,0,0,0-.22.15,1.34,1.34,0,0,0-.2.21,2.09,2.09,0,0,0-.15.3l.84,2.6a.31.31,0,0,0,.12.15.32.32,0,0,0,.19.05l.61,0,.09.29-2.75.89Z" transform="translate(-51.02 -48.43)"/><path class="cls-4" d="M377.83,246.78a2.79,2.79,0,0,1-1,.15,2.23,2.23,0,0,1-.89-.25,2.32,2.32,0,0,1-.71-.62,3.14,3.14,0,0,1-.64-1.95,2.43,2.43,0,0,1,.21-.93,2.27,2.27,0,0,1,.59-.76,2.64,2.64,0,0,1,.95-.53,2.69,2.69,0,0,1,1.12-.14,2.28,2.28,0,0,1,.91.3,2.39,2.39,0,0,1,.67.64,3.36,3.36,0,0,1,.43.87,2.89,2.89,0,0,1,.15,1,2.43,2.43,0,0,1-.21.93,2.48,2.48,0,0,1-.58.77A2.76,2.76,0,0,1,377.83,246.78Zm-.1-.5a.74.74,0,0,0,.44-.34,1.25,1.25,0,0,0,.15-.55,2.54,2.54,0,0,0-.06-.66,6,6,0,0,0-.17-.64,7.22,7.22,0,0,0-.29-.72,2.61,2.61,0,0,0-.38-.59,1.35,1.35,0,0,0-.47-.37.7.7,0,0,0-.55,0,.68.68,0,0,0-.43.34,1.21,1.21,0,0,0-.15.54,2.42,2.42,0,0,0,.06.65,5.47,5.47,0,0,0,.43,1.33,2.83,2.83,0,0,0,.37.61,1.31,1.31,0,0,0,.47.39A.73.73,0,0,0,377.73,246.28Z" transform="translate(-51.02 -48.43)"/></g></svg>