<svg id="_2_ape" data-name="2 ape" xmlns="http://www.w3.org/2000/svg" xmlns:xlink="http://www.w3.org/1999/xlink" viewBox="0 0 444.96 368.68"><defs><style>.cls-1{isolation:isolate;}.cls-2{fill:url(#linear-gradient);}.cls-3{fill:url(#linear-gradient-2);}.cls-4{fill:url(#linear-gradient-3);}.cls-5{fill:url(#linear-gradient-4);}.cls-6{fill:#231f20;}.cls-7{fill:#fff;}.cls-8{opacity:0.2;}</style><linearGradient id="linear-gradient" x1="-70.27" y1="-13.66" x2="173.02" y2="300.64" gradientUnits="userSpaceOnUse"><stop offset="0" stop-color="#a6a8ab"/><stop offset="0.41" stop-color="#c6c8ca"/><stop offset="1" stop-color="#f1f2f2"/></linearGradient><linearGradient id="linear-gradient-2" x1="333.1" y1="-27.59" x2="333.1" y2="543.75" gradientUnits="userSpaceOnUse"><stop offset="0" stop-color="#a6a8ab"/><stop offset="0.1" stop-color="#b0b2b5"/><stop offset="0.48" stop-color="#d3d5d6"/><stop offset="0.8" stop-color="#e9eaeb"/><stop offset="1" stop-color="#f1f2f2"/></linearGradient><linearGradient id="linear-gradient-3" x1="354.39" y1="199.45" x2="206.09" y2="-36.66" gradientUnits="userSpaceOnUse"><stop offset="0.04" stop-color="#771727"/><stop offset="0.04" stop-color="#781627"/><stop offset="0.17" stop-color="#8c0d2c"/><stop offset="0.31" stop-color="#9a072f"/><stop offset="0.49" stop-color="#a30330"/><stop offset="0.79" stop-color="#a50231"/></linearGradient><linearGradient id="linear-gradient-4" x1="90.27" y1="144.44" x2="41.37" y2="66.59" gradientUnits="userSpaceOnUse"><stop offset="0.04" stop-color="#771727"/><stop offset="0.17" stop-color="#771727"/><stop offset="1" stop-color="#771727"/></linearGradient></defs><title>ac 2 ape</title><g class="cls-1"><polygon class="cls-2" points="124.57 31.26 232.87 185.2 239.45 196.01 238.22 195.78 239.28 368.68 37.45 332.3 31.03 165.67 124.57 31.26"/><polygon class="cls-3" points="238.48 193.79 423.65 141.03 427.71 269.38 239.28 368.68 238.48 193.79"/><polygon class="cls-4" points="116.22 19.79 341.47 0 444.96 142.56 236.96 213.58 116.22 19.79"/><polygon class="cls-5" points="116.09 19.66 10.81 183.82 29.99 182.31 127.37 37.7 116.09 19.66"/></g><rect class="cls-6" x="48.97" y="272.46" width="1.38" height="91.63" transform="translate(-38.26 -63.8) rotate(-1.94)"/><path class="cls-6" d="M47.91,266.66a29.13,29.13,0,0,1-4.3,8.4l4.53-1.81,4.64,1.5A29,29,0,0,1,47.91,266.66Z" transform="translate(-27.52 -65.66)"/><path class="cls-6" d="M51.41,369.88a29.31,29.31,0,0,0-4.87-8.09l4.64,1.51,4.53-1.82A29.26,29.26,0,0,0,51.41,369.88Z" transform="translate(-27.52 -65.66)"/><rect class="cls-6" x="275.52" y="257.07" width="188.59" height="1.38" transform="translate(-93.67 77.49) rotate(-20.15)"/><path class="cls-6" d="M275.83,292.25a29.38,29.38,0,0,1,9.32,1.47L282,290l0-4.88A29.12,29.12,0,0,1,275.83,292.25Z" transform="translate(-27.52 -65.66)"/><path class="cls-6" d="M463.81,223.27a29.13,29.13,0,0,0-6.16,7.15l0-4.88-3.13-3.74A29.06,29.06,0,0,0,463.81,223.27Z" transform="translate(-27.52 -65.66)"/><rect class="cls-6" x="7.06" y="157.34" width="145.82" height="1.38" transform="translate(-123.43 71.5) rotate(-56.39)"/><path class="cls-6" d="M36.4,223.61a29.26,29.26,0,0,1,8.39-4.33l-4.74-1.16-2.9-3.92A29.27,29.27,0,0,1,36.4,223.61Z" transform="translate(-27.52 -65.66)"/><path class="cls-6" d="M123.55,92.45a29.3,29.3,0,0,0-.75,9.41l-2.9-3.92-4.74-1.16A29,29,0,0,0,123.55,92.45Z" transform="translate(-27.52 -65.66)"/><rect class="cls-7" x="222.32" y="85.43" width="1.38" height="183.93" transform="matrix(0.84, -0.54, 0.54, 0.84, -88.01, 82.88)"/><path class="cls-7" d="M170.2,95.1a29.17,29.17,0,0,1,.59,9.41l3-3.87,4.75-1.08A29.25,29.25,0,0,1,170.2,95.1Z" transform="translate(-27.52 -65.66)"/><path class="cls-7" d="M275.83,259.7a29.19,29.19,0,0,0-8.32-4.46l4.76-1.08,3-3.88A29,29,0,0,0,275.83,259.7Z" transform="translate(-27.52 -65.66)"/><path class="cls-6" d="M31.48,319.77,29.75,325H27.52l5.66-16.67h2.6L41.47,325h-2.3l-1.78-5.24Zm5.46-1.68-1.63-4.8c-.37-1.09-.62-2.08-.87-3h0c-.25,1-.52,2-.85,3l-1.63,4.83Z" transform="translate(-27.52 -65.66)"/><path class="cls-6" d="M374,263.78a21.65,21.65,0,0,1,3.93-.34c2.16,0,3.54.37,4.58,1.21a3.47,3.47,0,0,1,1.38,2.94,4,4,0,0,1-2.81,3.66v.05a4.3,4.3,0,0,1,3.43,4.18,4.5,4.5,0,0,1-1.41,3.34c-1.16,1.06-3,1.56-5.76,1.56a25,25,0,0,1-3.34-.2Zm2.15,6.83h2c2.27,0,3.61-1.19,3.61-2.8,0-1.95-1.49-2.72-3.66-2.72a9.6,9.6,0,0,0-1.91.15Zm0,8a12,12,0,0,0,1.81.1c2.23,0,4.28-.82,4.28-3.24s-2-3.22-4.31-3.22h-1.78Z" transform="translate(-27.52 -65.66)"/><path class="cls-6" d="M70.59,160.5a10.63,10.63,0,0,1-4.4.79c-4.7,0-8.24-3-8.24-8.43,0-5.22,3.54-8.75,8.71-8.75a8.89,8.89,0,0,1,4,.74l-.52,1.75a7.9,7.9,0,0,0-3.36-.69c-3.91,0-6.51,2.5-6.51,6.88,0,4.08,2.35,6.7,6.41,6.7a8.6,8.6,0,0,0,3.51-.69Z" transform="translate(-27.52 -65.66)"/><path class="cls-7" d="M231.68,161.93a30.62,30.62,0,0,1,4.58-.34c3.09,0,5.29.71,6.75,2.07a7.7,7.7,0,0,1,2.35,6,8.82,8.82,0,0,1-2.4,6.48c-1.56,1.56-4.13,2.4-7.37,2.4a35.68,35.68,0,0,1-3.91-.2Zm2.15,14.74a13.47,13.47,0,0,0,2.18.13c4.6,0,7.1-2.58,7.1-7.08,0-3.93-2.2-6.43-6.75-6.43a12.57,12.57,0,0,0-2.53.22Z" transform="translate(-27.52 -65.66)"/><g class="cls-8"><rect class="cls-6" x="375.49" y="197.39" width="1.67" height="1.67" transform="translate(-70.36 60.38) rotate(-18.01)"/><rect class="cls-6" x="377.55" y="196.72" width="1.67" height="1.67" transform="translate(-70.06 60.98) rotate(-18.01)"/><rect class="cls-6" x="376.16" y="199.45" width="1.67" height="1.67" transform="translate(-70.97 60.69) rotate(-18.01)"/><rect class="cls-6" x="378.22" y="198.78" width="1.67" height="1.67" transform="translate(-70.66 61.29) rotate(-18.01)"/><path class="cls-6" d="M380.52,200.36l-4.28,1.39-1.39-4.28,4.28-1.39Zm-4.18,1.2,4-1.3-1.29-4-4,1.29Z" transform="translate(-27.52 -65.66)"/><polygon class="cls-6" points="346.46 123.23 346.46 123.24 346.46 123.24 339.13 135.78 332.45 132.85 331.15 128.86 328.49 129.72 329.01 131.34 317.19 126.16 317.18 126.16 317.18 126.16 301.36 153.23 305.77 151.8 318.46 130.09 337.56 138.46 340.41 139.71 341.49 140.19 345.9 138.75 341.97 137.03 347.74 127.16 362.13 133.48 366.55 132.04 346.46 123.23"/><path class="cls-6" d="M340.21,227.33l.92,2.84-7.77,2.52-3.86-11.87,7.63-2.48.92,2.83-4.36,1.41.57,1.75,3.91-1.27.87,2.68L335.13,227l.58,1.77Z" transform="translate(-27.52 -65.66)"/><path class="cls-6" d="M351.81,226.7l-4.1-3.93-1,5.6L341.82,230l2.05-9.58-6.83-6,4.83-1.56,3.75,3.62.93-5.14,4.76-1.55-1.92,8.92,7.26,6.46Z" transform="translate(-27.52 -65.66)"/><path class="cls-6" d="M364.77,214.1a4.46,4.46,0,0,1-3,5.74l-1.78.58L361,223.7l-3.29,1.07-3.86-11.88,5.07-1.65A4.45,4.45,0,0,1,364.77,214.1Zm-3.37,1.1a1.45,1.45,0,0,0-1.91-1l-1.39.45.94,2.88,1.39-.45A1.45,1.45,0,0,0,361.4,215.2Z" transform="translate(-27.52 -65.66)"/><path class="cls-6" d="M375.57,215.84l.92,2.84-7.77,2.52-3.86-11.88,7.62-2.47.92,2.82-4.35,1.42.57,1.75,3.91-1.27.87,2.68-3.91,1.27.58,1.78Z" transform="translate(-27.52 -65.66)"/><path class="cls-6" d="M381.66,213l-1.19.38,1.18,3.64-3.28,1.06-3.86-11.87,5.16-1.68a4.37,4.37,0,0,1,5.8,2.76,4,4,0,0,1-.8,4l3.77,3.55L384.78,216Zm-2.08-2.37,1.5-.49a1.36,1.36,0,1,0-.84-2.58l-1.5.49Z" transform="translate(-27.52 -65.66)"/><path class="cls-6" d="M395.65,202.57l-3.24,1.06,2.91,8.93-3.3,1.07-2.9-8.93-3.24,1.05-1-2.95,9.77-3.17Z" transform="translate(-27.52 -65.66)"/><path class="cls-6" d="M337.91,239.77a2.59,2.59,0,0,1-.93.15,2.17,2.17,0,0,1-.84-.21,2,2,0,0,1-.68-.57,2.75,2.75,0,0,1-.48-.92,2.72,2.72,0,0,1-.13-.93,2.41,2.41,0,0,1,.2-.89,2.24,2.24,0,0,1,.54-.74,2.6,2.6,0,0,1,.88-.5,2.1,2.1,0,0,1,.84-.1,1.73,1.73,0,0,1,.7.2,1.6,1.6,0,0,1,.53.43,1.77,1.77,0,0,1,.33.58l0,.11c0,.05,0,.09,0,.14l0,.13a.44.44,0,0,1,0,.1l-2.8.91a2.24,2.24,0,0,0,.77,1.17,1.34,1.34,0,0,0,1.22.09,2,2,0,0,0,.42-.18,3,3,0,0,0,.32-.23,1.75,1.75,0,0,0,.24-.23l.17-.19.11,0,.11.35a3.44,3.44,0,0,1-.27.38,3.2,3.2,0,0,1-.36.39,4.27,4.27,0,0,1-.46.35A2.31,2.31,0,0,1,337.91,239.77Zm-.25-3a5.15,5.15,0,0,0-.2-.52,1.25,1.25,0,0,0-.25-.39.75.75,0,0,0-.3-.21.61.61,0,0,0-.38,0,.78.78,0,0,0-.33.21.77.77,0,0,0-.18.36,1.19,1.19,0,0,0,0,.47,3.47,3.47,0,0,0,.1.59Z" transform="translate(-27.52 -65.66)"/><path class="cls-6" d="M340.16,238.64l.3-.26a.79.79,0,0,0,.18-.19.62.62,0,0,0,.11-.17l.69-1.8-1.69-1.28a.46.46,0,0,0-.17-.09.87.87,0,0,0-.25,0l-.37,0-.09-.27,2.45-.79.08.26-.49.35.8.7.38.3.49-1.52-.59,0-.09-.26,1.72-.56.09.26-.3.26a1.17,1.17,0,0,0-.19.2l-.1.16-.68,1.71,1.78,1.34a.51.51,0,0,0,.18.09.86.86,0,0,0,.24,0l.36,0,.09.27-2.44.79-.09-.26.5-.35-.88-.76-.37-.3-.52,1.61.59,0,.09.27-1.73.56Z" transform="translate(-27.52 -65.66)"/><path class="cls-6" d="M346.13,239l.41-.29a.29.29,0,0,0,.12-.15.25.25,0,0,0,0-.17l-1.58-4.87a.29.29,0,0,0-.12-.18.43.43,0,0,0-.26-.06l-.42,0-.07-.22,1.71-.94.24.72a2.16,2.16,0,0,1,.26-.57,1.83,1.83,0,0,1,.32-.35,1.35,1.35,0,0,1,.31-.2l.27-.1a1.61,1.61,0,0,1,1.44.2,2,2,0,0,1,.54.57,3,3,0,0,1,.39.81,3.58,3.58,0,0,1,.18,1,2.71,2.71,0,0,1-.15.91,2,2,0,0,1-.46.73,2.08,2.08,0,0,1-.79.47,1.75,1.75,0,0,1-.36.07h-.31l-.28-.07-.24-.1.06.18.53,1.63a.25.25,0,0,0,.11.15.34.34,0,0,0,.18,0l.62,0,.09.26-2.64.86Zm1.86-3.17a1,1,0,0,0,.43-.28,1,1,0,0,0,.21-.45,1.76,1.76,0,0,0,0-.57,3.13,3.13,0,0,0-.14-.63,4.66,4.66,0,0,0-.28-.67,1.88,1.88,0,0,0-.36-.48,1,1,0,0,0-.43-.24.94.94,0,0,0-.52,0l-.18.07a.66.66,0,0,0-.2.11.85.85,0,0,0-.17.16.63.63,0,0,0-.1.25l.89,2.74.18,0h.22a1.6,1.6,0,0,0,.23,0Z" transform="translate(-27.52 -65.66)"/><path class="cls-6" d="M353.46,234.72a2.86,2.86,0,0,1-.94.14,2,2,0,0,1-1.51-.77,3,3,0,0,1-.48-.92,2.74,2.74,0,0,1-.13-.94,2.22,2.22,0,0,1,.2-.88,2.14,2.14,0,0,1,.54-.74,2.36,2.36,0,0,1,.88-.5,2.12,2.12,0,0,1,.84-.11,2,2,0,0,1,.7.2,1.73,1.73,0,0,1,.53.44,1.68,1.68,0,0,1,.33.58.81.81,0,0,1,0,.11,1,1,0,0,0,0,.14l0,.13a.51.51,0,0,1,0,.09l-2.8.91a2.18,2.18,0,0,0,.77,1.18,1.34,1.34,0,0,0,1.22.09,1.62,1.62,0,0,0,.42-.19,2,2,0,0,0,.32-.22,1.66,1.66,0,0,0,.23-.23l.18-.2.1,0,.12.34a2.7,2.7,0,0,1-.27.38,3.33,3.33,0,0,1-.36.39,2.66,2.66,0,0,1-.46.35A2.53,2.53,0,0,1,353.46,234.72Zm-.25-3a4.36,4.36,0,0,0-.2-.52,1.46,1.46,0,0,0-.25-.39.69.69,0,0,0-.3-.22.55.55,0,0,0-.38,0,.7.7,0,0,0-.34.21,1,1,0,0,0-.18.35,1.82,1.82,0,0,0,0,.48,3.55,3.55,0,0,0,.11.59Z" transform="translate(-27.52 -65.66)"/><path class="cls-6" d="M356,233.5l.41-.29a.36.36,0,0,0,.11-.14.25.25,0,0,0,0-.19l-.89-2.74-.05-.1a.3.3,0,0,0-.08-.08l-.11-.05-.15,0h-.46l-.07-.21,1.74-1,.32,1c0-.14.07-.28.11-.43a2.41,2.41,0,0,1,.16-.42,1.54,1.54,0,0,1,.27-.36,1.22,1.22,0,0,1,.42-.24l.23-.06.19,0h.33l.44,1.34-.37.12-.29-.28a.31.31,0,0,0-.1,0l-.14,0h-.15l-.15,0-.25.1a.77.77,0,0,0-.21.14,1.14,1.14,0,0,0-.19.19,1.57,1.57,0,0,0-.14.29l.8,2.46a.25.25,0,0,0,.11.15.25.25,0,0,0,.17,0l.59,0,.08.27-2.6.85Z" transform="translate(-27.52 -65.66)"/><path class="cls-6" d="M362.48,231.77a2.24,2.24,0,0,1-.55.11,1.25,1.25,0,0,1-.48,0,1,1,0,0,1-.37-.2.75.75,0,0,1-.22-.35l-1-3-.7.22-.09-.28c.11-.06.2-.13.29-.19a1.29,1.29,0,0,0,.2-.21.79.79,0,0,0,.1-.27.92.92,0,0,0,0-.35l-.15-.56,1-.52.41,1.28,1.53-.5,0,.53-1.39.45.91,2.8a.31.31,0,0,0,.17.2.79.79,0,0,0,.27.1,1.51,1.51,0,0,0,.3,0l.26-.05.15-.06.13-.07.13-.07.1-.06.1,0,.1.3-.17.17-.27.23a2.36,2.36,0,0,1-.35.23A2.08,2.08,0,0,1,362.48,231.77Z" transform="translate(-27.52 -65.66)"/><path class="cls-6" d="M366.14,230.58a2.24,2.24,0,0,1-.55.11,1.27,1.27,0,0,1-.48,0,1,1,0,0,1-.37-.2.75.75,0,0,1-.22-.35l-1-3-.7.22-.09-.28c.11-.06.2-.13.29-.19a1.29,1.29,0,0,0,.2-.21.79.79,0,0,0,.1-.27.92.92,0,0,0,0-.35l-.14-.56,1-.52.41,1.28,1.53-.5,0,.53-1.39.45.91,2.8a.31.31,0,0,0,.17.2.79.79,0,0,0,.27.1,1.51,1.51,0,0,0,.3,0l.26-.05.15-.06.14-.07.12-.07.1-.06.1,0,.1.3-.17.17a3.53,3.53,0,0,1-.27.23,2.36,2.36,0,0,1-.35.23A2.08,2.08,0,0,1,366.14,230.58Z" transform="translate(-27.52 -65.66)"/><path class="cls-6" d="M369.16,229.61a1.3,1.3,0,0,1-.51,0,1.18,1.18,0,0,1-.46-.14,1.31,1.31,0,0,1-.36-.3,1.19,1.19,0,0,1-.23-.43,1.36,1.36,0,0,1-.07-.52,1.49,1.49,0,0,1,.13-.47,1.52,1.52,0,0,1,.28-.4,2.37,2.37,0,0,1,.37-.34,3.19,3.19,0,0,1,.42-.26,2.47,2.47,0,0,1,.42-.17l.12,0,.15,0,.16,0,.12,0-.2-.66a3.27,3.27,0,0,0-.14-.34.52.52,0,0,0-.16-.19.29.29,0,0,0-.2,0,1,1,0,0,0-.27,0,1.3,1.3,0,0,0-.36.2l-.33.32-.29.36-.23.31-.14,0-.47-.81a2.52,2.52,0,0,1,.29-.26c.11-.08.23-.17.36-.25A3.62,3.62,0,0,1,368,225a2.75,2.75,0,0,1,.5-.2,2.87,2.87,0,0,1,.66-.14,1.81,1.81,0,0,1,.66,0,1.22,1.22,0,0,1,.56.3,1.32,1.32,0,0,1,.38.63l.7,2.24.06.12a.21.21,0,0,0,.1.06.22.22,0,0,0,.14,0l.17,0,.15-.07.2-.11.09,0,.1.32a1,1,0,0,1-.15.17,2.4,2.4,0,0,1-.23.21,3.06,3.06,0,0,1-.29.21,1.66,1.66,0,0,1-.31.14,2.07,2.07,0,0,1-.38.09.89.89,0,0,1-.33,0,.63.63,0,0,1-.27-.16.86.86,0,0,1-.18-.33,2,2,0,0,1-.22.51,1.43,1.43,0,0,1-.3.34,1.52,1.52,0,0,1-.33.21Zm.47-.91.19-.08a.88.88,0,0,0,.17-.12.79.79,0,0,0,.14-.17.69.69,0,0,0,.09-.23l-.41-1.28a2.35,2.35,0,0,0-.53.23,1.27,1.27,0,0,0-.37.3.91.91,0,0,0-.18.37,1,1,0,0,0,.22.78.5.5,0,0,0,.21.18.53.53,0,0,0,.24.06A.85.85,0,0,0,369.63,228.7Z" transform="translate(-27.52 -65.66)"/><path class="cls-6" d="M375.33,227.63l-.44.13a3.41,3.41,0,0,1-.48.09,4.22,4.22,0,0,1-.52,0,3.86,3.86,0,0,1-.58,0l-1.77-5.46a.3.3,0,0,0-.12-.17.41.41,0,0,0-.27-.07h-.45l-.07-.21,1.77-1,.89,2.74.11.33a1.92,1.92,0,0,1,.24-.54,1.8,1.8,0,0,1,.31-.35,1.41,1.41,0,0,1,.31-.21l.27-.11a1.66,1.66,0,0,1,.76-.07,1.64,1.64,0,0,1,.67.27,2,2,0,0,1,.56.57,3.19,3.19,0,0,1,.39.83,3,3,0,0,1,.16,1,2.69,2.69,0,0,1-.22.94,2.37,2.37,0,0,1-.58.77A2.57,2.57,0,0,1,375.33,227.63Zm-.12-.46a1,1,0,0,0,.45-.3,1.16,1.16,0,0,0,.22-.49,2.06,2.06,0,0,0,0-.61,3.39,3.39,0,0,0-.14-.66,4.34,4.34,0,0,0-.29-.68,2.15,2.15,0,0,0-.36-.49,1,1,0,0,0-.43-.24.94.94,0,0,0-.52,0l-.18.07a.78.78,0,0,0-.2.11.85.85,0,0,0-.17.16.82.82,0,0,0-.1.25l.89,2.73a.91.91,0,0,0,.17.08l.21.05a.9.9,0,0,0,.23,0A.66.66,0,0,0,375.21,227.17Z" transform="translate(-27.52 -65.66)"/><path class="cls-6" d="M378.26,226.25l.4-.28a.4.4,0,0,0,.12-.15.28.28,0,0,0,0-.18l-1.65-5.06a.29.29,0,0,0-.12-.18.4.4,0,0,0-.26-.07h-.46l-.07-.21,1.77-1,2,6.14a.19.19,0,0,0,.1.14.37.37,0,0,0,.18.05l.44,0,.08.27-2.44.79Z" transform="translate(-27.52 -65.66)"/><path class="cls-6" d="M382.69,225.21a1.27,1.27,0,0,1-.51,0,1,1,0,0,1-.46-.14,1.16,1.16,0,0,1-.36-.3,1.42,1.42,0,0,1-.3-.95,1.49,1.49,0,0,1,.13-.47,1.8,1.8,0,0,1,.28-.4,2.37,2.37,0,0,1,.37-.34,4.78,4.78,0,0,1,.42-.26,3.37,3.37,0,0,1,.42-.17l.12,0,.16,0,.16,0,.12,0-.21-.65a2.1,2.1,0,0,0-.14-.35.52.52,0,0,0-.16-.19.33.33,0,0,0-.2,0,1,1,0,0,0-.27,0,1,1,0,0,0-.35.21,2,2,0,0,0-.33.32,2.34,2.34,0,0,0-.29.35l-.24.31-.14,0-.47-.81.29-.26a4,4,0,0,1,.37-.25,2.52,2.52,0,0,1,.43-.24,3.58,3.58,0,0,1,.49-.2,2.87,2.87,0,0,1,.66-.14,1.81,1.81,0,0,1,.66.05,1.31,1.31,0,0,1,.57.3,1.4,1.4,0,0,1,.38.63l.7,2.25a.24.24,0,0,0,.06.11.17.17,0,0,0,.1.06.28.28,0,0,0,.13,0l.17,0,.15-.07.2-.11.09,0,.1.31a.73.73,0,0,1-.15.17,1.6,1.6,0,0,1-.23.21,3.06,3.06,0,0,1-.29.21,1.41,1.41,0,0,1-.31.14,1.89,1.89,0,0,1-.38.09.89.89,0,0,1-.33,0,.54.54,0,0,1-.26-.16.87.87,0,0,1-.19-.33,1.71,1.71,0,0,1-.22.51,1.43,1.43,0,0,1-.3.34,1.52,1.52,0,0,1-.33.21A1.58,1.58,0,0,1,382.69,225.21Zm-.73-5.34a1.74,1.74,0,0,1-.5.08,1.16,1.16,0,0,1-.51-.12,1.44,1.44,0,0,1-.49-.36,2.77,2.77,0,0,1-.43-.67l.36-.2a2.37,2.37,0,0,0,.29.36.8.8,0,0,0,.29.2.72.72,0,0,0,.33.05,2,2,0,0,0,.42-.09,1.49,1.49,0,0,0,.38-.17.76.76,0,0,0,.24-.23.81.81,0,0,0,.12-.33,3.18,3.18,0,0,0,0-.47l.41,0a3.24,3.24,0,0,1,0,.8,1.58,1.58,0,0,1-.18.58,1.12,1.12,0,0,1-.34.38A1.67,1.67,0,0,1,382,219.87Zm1.2,4.43a.64.64,0,0,0,.19-.08.66.66,0,0,0,.17-.12.58.58,0,0,0,.14-.17,1.12,1.12,0,0,0,.1-.22l-.41-1.29a2.74,2.74,0,0,0-.54.23,1.42,1.42,0,0,0-.37.3.77.77,0,0,0-.17.38.86.86,0,0,0,0,.44.9.9,0,0,0,.17.34.57.57,0,0,0,.22.17.46.46,0,0,0,.23.06A.59.59,0,0,0,383.16,224.3Z" transform="translate(-27.52 -65.66)"/><path class="cls-6" d="M387,223.69l-.4-1.22,1.23-.4.39,1.23Z" transform="translate(-27.52 -65.66)"/><path class="cls-6" d="M389.44,222.62l.41-.29a.3.3,0,0,0,.11-.14.23.23,0,0,0,0-.18l-.89-2.74a1.17,1.17,0,0,0-.05-.11.3.3,0,0,0-.08-.08l-.11-.05-.15,0h-.46l-.07-.21,1.73-1,.32,1c0-.14.07-.28.11-.42a1.94,1.94,0,0,1,.17-.42,1.22,1.22,0,0,1,.27-.36,1.09,1.09,0,0,1,.42-.25l.23-.06.19,0h.33l.44,1.34-.37.12-.3-.28a.19.19,0,0,0-.1-.05l-.13,0h-.16l-.14,0-.25.1a1,1,0,0,0-.22.14.88.88,0,0,0-.18.2,1.77,1.77,0,0,0-.15.28l.8,2.46a.26.26,0,0,0,.12.15.21.21,0,0,0,.17,0l.58,0,.09.27-2.6.85Z" transform="translate(-27.52 -65.66)"/><path class="cls-6" d="M396.15,220.87a2.72,2.72,0,0,1-1,.14,2,2,0,0,1-.84-.24,2.19,2.19,0,0,1-.68-.58,3.17,3.17,0,0,1-.46-.9,2.88,2.88,0,0,1-.14-.95,2.36,2.36,0,0,1,.2-.88,2.27,2.27,0,0,1,.55-.73,2.64,2.64,0,0,1,.91-.49,2.57,2.57,0,0,1,1.06-.14,2.19,2.19,0,0,1,.86.29,2.15,2.15,0,0,1,.64.6,3.12,3.12,0,0,1,.4.82,2.66,2.66,0,0,1,.15.95,2.32,2.32,0,0,1-.2.88,2.17,2.17,0,0,1-.55.73A2.58,2.58,0,0,1,396.15,220.87Zm-.09-.48a.68.68,0,0,0,.41-.32,1.25,1.25,0,0,0,.14-.52,2.25,2.25,0,0,0-.06-.62,3.62,3.62,0,0,0-.16-.61,4.37,4.37,0,0,0-.27-.68,3.1,3.1,0,0,0-.36-.57,1.31,1.31,0,0,0-.45-.34.67.67,0,0,0-.52,0,.68.68,0,0,0-.41.32,1.21,1.21,0,0,0-.14.52,2.6,2.6,0,0,0,.05.61c0,.22.1.42.16.61a6.48,6.48,0,0,0,.25.64,3.06,3.06,0,0,0,.35.59,1.45,1.45,0,0,0,.46.37A.69.69,0,0,0,396.06,220.39Z" transform="translate(-27.52 -65.66)"/></g></svg>